<svg width="1080" height="1080" viewBox="0 0 1080 1080" fill="none" xmlns="http://www.w3.org/2000/svg">
<rect width="1080" height="1080" fill="#00875F"/>
<path opacity="0.5" d="M911.749 173.349L729.798 852.736C728.873 855.82 725.172 856.745 723.013 854.586L601.199 732.772L692.483 392.307C693.408 389.223 690.632 386.448 687.548 387.373L347.084 478.657L225.886 357.459C223.727 355.3 224.652 351.6 227.736 350.674L906.815 168.415C909.899 167.798 912.674 170.574 911.749 173.349Z" fill="white"/>
<path opacity="0.5" d="M601.196 732.774L554.321 908.557C553.396 911.641 549.695 912.566 547.536 910.408L169.448 532.628C167.289 530.469 168.214 526.768 171.298 525.843L347.082 478.659L601.196 732.774Z" fill="white"/>
<path d="M692.482 392.303L601.198 732.768L347.083 478.653L687.548 387.369C690.632 386.444 693.407 389.22 692.482 392.303Z" fill="white"/>
</svg>
