<svg width="700px" height="695px" viewBox="0 0 460 500" fill="none" xmlns="http://www.w3.org/2000/svg">
  <rect width="460" height="500"></rect>
  <path d="M 20.075 261.008 C 22.829 263.38 26.884 266.67 33.081 267.894 C 40.808 269.424 47.235 266.823 49.913 265.599 C 54.273 270.878 68.045 286.026 91.226 290.846 C 108.211 294.442 121.982 290.693 126.42 289.316 C 130.704 288.015 142.563 283.884 153.58 273.632 C 168.881 259.402 180.51 235.378 176.149 208.984 C 171.559 181.058 151.59 165.604 147.076 162.314 C 148.454 161.09 150.366 159.254 152.432 156.959 C 153.886 155.276 160.695 147.472 165.438 134.772 C 166.815 131.099 169.416 123.908 170.029 114.115 C 171.1 97.054 165.209 84.124 162.378 78.157 C 159.7 72.495 156.869 68.058 154.727 65.15 C 147.306 67.063 136.901 70.123 124.889 75.096 C 109.971 81.293 82.658 94.529 56.033 120.235 C 47.235 128.728 38.972 136.837 30.786 150.073 C 20.763 166.293 16.173 181.671 13.954 192.152 C 11.353 194.524 7.298 198.732 4.773 205.158 C 1.713 212.885 2.478 219.618 3.243 225.815 C 4.008 231.63 6.227 249.226 20.075 261.008 Z" fill="url(#paint0_radial)"></path>
  <path d="M 347.525 110.289 C 313.938 82.058 279.281 70.276 258.012 65.15 C 216.851 55.204 182.346 59.489 163.525 63.238 C 172.018 74.408 175.384 84.889 176.914 91.163 C 183.341 118.017 172.477 140.051 169.263 146.248 C 165.438 153.669 161.23 159.177 158.17 162.697 C 162.531 166.446 168.498 172.337 173.854 180.676 C 176.532 184.884 181.887 193.376 184.565 205.923 C 187.319 218.776 185.865 229.564 184.565 235.761 C 182.423 245.783 178.597 253.511 175.384 258.713 C 180.433 257.871 187.855 256.953 196.806 257.183 C 224.042 257.871 244.24 268.276 252.656 273.249 C 258.088 276.463 270.482 284.343 282.494 298.497 C 293.817 311.732 299.631 324.509 302.386 331.395 C 305.446 339.045 311.49 356.565 310.801 378.829 C 310.572 385.256 308.659 425.575 277.138 457.631 C 274.384 460.462 262.602 472.091 243.475 481.348 C 223.124 491.218 204.533 493.436 193.363 493.972 C 201.32 494.508 211.189 494.737 222.436 493.972 C 228.633 493.513 241.257 492.365 256.864 488.617 C 267.498 486.092 288.461 480.124 312.332 466.812 C 330.999 456.407 344.541 445.314 352.88 437.739 C 360.76 430.624 372.543 418.919 384.248 402.546 C 393.199 390.076 398.937 379.288 401.845 373.474 C 407.889 361.385 412.02 350.292 414.851 341.341 C 416.84 335.067 420.206 323.132 422.502 307.678 C 422.961 304.541 424.567 292.988 424.797 279.37 C 425.332 246.013 417.07 218.241 414.851 211.279 C 396.566 152.827 356.706 118.017 347.525 110.289 Z" fill="url(#paint1_radial)"></path>
  <path d="M 455.4 129.416 C 449.279 108.071 431.07 91.775 408.348 86.955 C 408.883 76.397 408.042 58.265 396.489 42.963 C 376.597 16.568 332.682 8.535 290.145 27.662 C 282.876 12.59 273.313 7.77 269.488 6.24 C 248.219 -2.406 216.086 12.437 196.041 46.789 C 219.911 46.024 257.629 48.166 298.56 65.915 C 325.491 77.621 344.388 91.928 353.645 99.579 C 363.974 108.147 384.937 126.968 403.375 156.959 C 413.474 173.408 419.9 188.48 424.032 199.803 C 429.387 197.048 438.721 191.31 446.219 180.676 C 448.055 177.998 463.05 156.117 455.4 129.416 Z" fill="url(#paint2_radial)"></path>
  <path d="M 230.086 378.447 C 233.759 381.201 245.847 389.617 262.984 389.157 C 285.401 388.545 299.019 373.397 301.238 370.796 C 301.008 364.828 300.167 356.259 297.413 346.314 C 286.549 307.372 256.634 287.174 252.274 284.343 C 247.989 281.512 223.277 265.828 189.538 266.746 C 183.264 266.899 177.985 267.588 174.236 268.276 C 180.433 269.501 189.538 272.025 199.101 277.84 C 226.797 294.595 233.988 323.591 235.059 328.334 C 239.65 348.073 235.212 364.14 234.294 367.353 C 232.917 371.943 231.311 375.769 230.086 378.447 Z" fill="url(#paint3_radial)"></path>
  <path d="M 108.823 435.444 C 99.26 409.967 104.615 387.704 106.528 380.359 C 108.364 373.244 110.736 367.506 112.648 363.528 C 110.43 361.998 77.073 339.581 43.409 354.729 C 28.108 361.615 19.386 373.321 15.484 379.594 C 28.567 403.77 43.562 420.831 54.503 431.619 C 85.641 462.222 119.228 476.758 140.191 483.644 C 156.946 489.152 171.865 491.753 183.264 493.13 C 174.313 491.983 161.001 488.923 147.076 480.583 C 140.956 476.911 119.304 463.446 108.823 435.444 Z" fill="url(#paint4_radial)"></path>
  <path d="M 108.058 258.331 C 129.396 258.331 146.694 241.033 146.694 219.694 C 146.694 198.356 129.396 181.058 108.058 181.058 C 86.72 181.058 69.422 198.356 69.422 219.694 C 69.422 241.033 86.72 258.331 108.058 258.331 Z" fill="white" stroke="white" stroke-miterlimit="10" stroke-linejoin="round"></path>
  <path d="M 108.058 241.652 C 120.185 241.652 130.015 231.821 130.015 219.694 C 130.015 207.568 120.185 197.737 108.058 197.737 C 95.931 197.737 86.1 207.568 86.1 219.694 C 86.1 231.821 95.931 241.652 108.058 241.652 Z" fill="url(#paint5_linear)"></path>
  <path d="M 119.916 208.601 C 119.228 207.836 113.796 201.945 105.686 202.557 C 100.79 202.939 94.822 205.617 92.603 210.896 C 92.221 211.738 90.308 216.787 93.139 220.077 C 95.052 222.296 97.959 222.372 98.495 222.372 C 101.172 222.372 103.697 220.995 104.998 219.006 C 106.757 216.175 104.998 213.956 106.145 211.661 C 107.14 209.672 110.277 207.836 119.916 208.601 Z" fill="white"></path>
  <path d="M 217.845 132.094 C 231.693 150.303 268.799 118.093 310.419 136.684 C 338.803 149.385 348.366 176.238 368.564 172.643 C 378.204 170.883 384.937 163.232 388.992 157.265 C 371.701 131.176 353.416 115.186 347.525 110.289 C 313.938 82.058 279.281 70.276 258.012 65.15 C 243.322 61.631 229.551 59.871 217.004 59.259 C 216.851 61.325 216.621 64.615 216.315 68.593 C 213.944 106.388 212.72 125.361 217.845 132.094 Z" fill="url(#paint6_linear)"></path>
  <path d="M 285.937 256.035 C 284.406 252.439 277.903 238.745 263.75 230.788 C 252.197 224.285 245.694 227.192 230.852 223.137 C 206.752 216.481 204.457 201.562 190.303 200.185 C 187.931 199.956 185.483 199.956 183.035 200.109 C 183.57 201.945 184.106 203.858 184.565 205.923 C 187.319 218.776 185.865 229.564 184.565 235.761 C 182.423 245.783 178.597 253.511 175.384 258.713 C 180.433 257.871 187.855 256.953 196.806 257.183 C 224.042 257.871 244.24 268.276 252.656 273.249 C 258.088 276.463 270.482 284.343 282.494 298.497 C 283.565 299.721 284.559 300.945 285.478 302.169 C 291.139 286.944 292.134 270.342 285.937 256.035 Z" fill="url(#paint7_linear)"></path>
  <path d="M 401.845 373.474 C 407.889 361.385 412.02 350.292 414.851 341.341 C 416.84 335.067 420.206 323.132 422.502 307.678 C 422.961 304.541 424.567 292.988 424.797 279.37 C 425.332 246.013 417.07 218.241 414.851 211.279 C 414.774 211.049 414.698 210.82 414.621 210.59 C 411.714 221.148 407.047 231.477 399.932 240.734 C 377.822 269.424 345.23 271.49 343.317 291.994 C 341.481 312.268 372.237 319.766 383.101 349.374 C 391.21 371.637 384.172 395.584 374.532 415.093 C 377.745 411.268 380.958 407.06 384.248 402.546 C 393.123 389.999 398.861 379.288 401.845 373.474 Z" fill="url(#paint8_linear)"></path>
  <path d="M 329.546 447.303 C 328.551 442.253 325.032 435.903 319.6 433.532 C 308.812 428.788 296.801 442.1 279.434 455.26 C 278.669 456.025 277.903 456.866 277.138 457.631 C 274.384 460.462 262.602 472.091 243.475 481.348 C 223.124 491.218 204.533 493.437 193.363 493.972 C 201.32 494.508 211.189 494.737 222.436 493.972 C 228.633 493.513 241.257 492.365 256.864 488.617 C 267.498 486.092 288.461 480.124 312.332 466.812 C 318.223 463.522 323.655 460.156 328.551 456.866 C 329.699 453.959 330.234 450.899 329.546 447.303 Z" fill="url(#paint9_linear)"></path>
  <path d="M 70.493 263.303 C 65.673 267.129 61.848 271.949 59.782 277.228 C 59.476 277.916 59.246 278.528 59.093 279.217 C 58.864 279.829 58.634 280.747 58.405 281.512 C 58.022 283.042 57.64 284.419 57.41 285.797 C 56.951 288.551 57.104 291.152 57.869 293.447 C 58.634 295.742 60.165 297.808 62.307 299.568 C 65.75 302.246 69.651 303.317 70.493 303.546 C 73.63 304.311 76.001 304.235 79.903 304.082 C 84.188 303.929 86.177 303.317 92.068 303.164 C 93.139 303.164 94.134 303.164 95.052 303.164 L 98.035 303.164 C 100.025 303.164 102.09 303.24 104.156 303.47 C 108.287 303.776 112.495 304.388 116.474 305.612 C 120.529 306.836 124.354 308.825 127.491 311.35 C 130.551 313.951 132.999 317.011 134.453 320.454 C 135.218 322.214 135.677 323.974 135.83 325.81 C 136.059 327.646 135.906 329.406 135.6 331.165 C 135.294 332.925 134.759 334.685 133.994 336.291 C 133.152 337.974 132.005 339.504 130.474 340.805 C 130.092 341.111 129.709 341.417 129.25 341.723 C 128.868 342.029 128.409 342.259 127.95 342.488 C 127.032 342.947 126.037 343.253 125.042 343.483 C 123.053 343.942 120.911 344.018 118.922 343.712 C 116.091 343.33 114.102 342.259 113.337 341.8 C 110.583 340.193 109.206 338.204 109.282 338.127 C 109.359 338.051 110.736 340.04 113.566 341.417 C 114.255 341.723 116.244 342.641 118.998 342.794 C 120.911 342.871 122.747 342.641 124.507 342.106 C 125.348 341.8 126.19 341.494 126.955 341.035 C 127.338 340.805 127.72 340.576 128.026 340.346 C 128.332 340.117 128.715 339.81 128.944 339.504 C 131.316 337.209 132.234 333.996 132.464 330.783 C 132.693 327.569 132.081 324.509 130.551 321.755 C 129.021 319.001 126.726 316.552 123.971 314.64 C 121.217 312.804 118.004 311.426 114.561 310.738 C 107.675 309.208 100.101 309.667 92.45 310.355 C 87.018 310.814 87.018 311.503 81.357 312.038 C 75.389 312.65 72.023 312.957 67.509 312.191 C 61.389 311.12 57.028 308.596 54.886 307.219 C 52.973 305.918 51.137 304.464 49.607 302.705 C 48.076 301.021 46.776 299.109 45.858 297.043 C 43.945 292.988 43.486 288.704 43.639 284.802 C 43.716 282.813 43.945 280.9 44.251 279.14 C 44.404 278.222 44.481 277.457 44.71 276.463 C 44.863 275.468 45.169 274.55 45.399 273.555 C 47.617 265.905 52.131 258.866 58.252 253.052 L 58.328 252.975 C 61.465 249.991 66.821 249.762 70.263 252.44 C 73.783 255.117 74.012 259.708 70.952 262.691 C 70.875 262.997 70.646 263.15 70.493 263.303 Z" fill="url(#paint10_linear)"></path>
  <defs>
    <radialGradient id="paint0_radial" cx="0" cy="0" r="1" gradientUnits="userSpaceOnUse" gradientTransform="matrix(300.671997, 0, 0, 300.671997, 230.037811, 249.125732)">
      <stop stop-color="#9E60FC"></stop>
      <stop offset="1" stop-color="#45239B"></stop>
    </radialGradient>
    <radialGradient id="paint1_radial" cx="0" cy="0" r="1" gradientUnits="userSpaceOnUse" gradientTransform="matrix(300.671997, 0, 0, 300.671997, 230.037811, 249.125732)">
      <stop stop-color="#9E60FC"></stop>
      <stop offset="1" stop-color="#45239B"></stop>
    </radialGradient>
    <radialGradient id="paint2_radial" cx="0" cy="0" r="1" gradientUnits="userSpaceOnUse" gradientTransform="matrix(300.671997, 0, 0, 300.671997, 230.037811, 249.125732)">
      <stop stop-color="#9E60FC"></stop>
      <stop offset="1" stop-color="#45239B"></stop>
    </radialGradient>
    <radialGradient id="paint3_radial" cx="0" cy="0" r="1" gradientUnits="userSpaceOnUse" gradientTransform="matrix(300.673004, 0, 0, 300.673004, 230.037811, 249.125732)">
      <stop stop-color="#9E60FC"></stop>
      <stop offset="1" stop-color="#45239B"></stop>
    </radialGradient>
    <radialGradient id="paint4_radial" cx="0" cy="0" r="1" gradientUnits="userSpaceOnUse" gradientTransform="matrix(300.671997, 0, 0, 300.671997, 230.037811, 249.125732)">
      <stop stop-color="#9E60FC"></stop>
      <stop offset="1" stop-color="#45239B"></stop>
    </radialGradient>
    <linearGradient id="paint5_linear" x1="223.43" y1="267.847" x2="251.037" y2="327.741" gradientUnits="userSpaceOnUse" gradientTransform="matrix(1, 0, 0, 1, -138.441193, -98.172279)">
      <stop stop-color="#9E60FC"></stop>
      <stop offset="0.928" stop-color="#45239B"></stop>
    </linearGradient>
    <linearGradient id="paint6_linear" x1="374.895" y1="285.772" x2="451.481" y2="194.634" gradientUnits="userSpaceOnUse" gradientTransform="matrix(1, 0, 0, 1, -138.441193, -98.172279)">
      <stop offset="0.5056" stop-color="#FFBF4F"></stop>
      <stop offset="1" stop-color="#F58E54"></stop>
    </linearGradient>
    <linearGradient id="paint7_linear" x1="391.275" y1="330.976" x2="339.196" y2="382.289" gradientUnits="userSpaceOnUse" gradientTransform="matrix(1, 0, 0, 1, -138.441193, -98.172279)">
      <stop offset="0.1847" stop-color="#FFBF4F"></stop>
      <stop offset="1" stop-color="#F58E54"></stop>
    </linearGradient>
    <linearGradient id="paint8_linear" x1="481.648" y1="410.995" x2="563.232" y2="410.995" gradientUnits="userSpaceOnUse" gradientTransform="matrix(1, 0, 0, 1, -138.441193, -98.172279)">
      <stop offset="0.2361" stop-color="#FFBF4F"></stop>
      <stop offset="1" stop-color="#F58E54"></stop>
    </linearGradient>
    <linearGradient id="paint9_linear" x1="457.541" y1="506.683" x2="376.724" y2="599.546" gradientUnits="userSpaceOnUse" gradientTransform="matrix(1, 0, 0, 1, -138.441193, -98.172279)">
      <stop offset="0.1026" stop-color="#FFBF4F"></stop>
      <stop offset="0.893" stop-color="#F58E54"></stop>
    </linearGradient>
    <linearGradient id="paint10_linear" x1="182.085" y1="395.529" x2="274.395" y2="395.529" gradientUnits="userSpaceOnUse" gradientTransform="matrix(1, 0, 0, 1, -138.441193, -98.172279)">
      <stop offset="0.1847" stop-color="#FFBF4F"></stop>
      <stop offset="1" stop-color="#F58E54"></stop>
    </linearGradient>
  </defs>
</svg>
